<svg version="1.1" id="Layer_1" xmlns="http://www.w3.org/2000/svg" xmlns:xlink="http://www.w3.org/1999/xlink" x="0px" y="0px"
	 width="100%" viewBox="0 0 737 737" enable-background="new 0 0 737 737" xml:space="preserve">
<path fill="#000000" opacity="1.000000" stroke="none" 
	d="
M93.495239,595.500305 
	C61.409534,557.836426 38.214928,515.727478 24.301649,468.566315 
	C8.834044,416.136627 6.277910,362.782806 16.014996,309.292084 
	C30.815830,227.983658 71.949860,161.586349 134.474640,108.075722 
	C135.106522,107.534935 135.760025,107.015045 136.438995,106.535789 
	C136.693100,106.356438 137.048889,106.321159 137.332611,106.228577 
	C141.247604,111.428993 141.001740,116.119980 137.545990,121.933746 
	C130.772873,133.328461 128.999756,146.368347 128.053986,159.383209 
	C126.041862,187.072098 128.130569,214.671783 130.522308,242.233154 
	C132.061813,259.973846 133.524445,277.755096 136.089401,295.362610 
	C138.283966,310.427429 143.728455,324.663605 151.299896,337.947235 
	C152.806854,340.591095 152.647827,342.658722 151.461105,345.337891 
	C122.136780,411.541565 122.655769,478.096802 149.666031,544.770935 
	C156.909332,562.650879 168.221893,577.984131 187.889404,598.990479 
	C187.889404,598.109192 188.111679,597.382324 187.857468,596.914246 
	C175.750015,574.619690 169.999954,549.997314 162.267807,526.143372 
	C145.915909,475.697388 143.954514,424.782532 159.968124,373.828033 
	C163.038803,364.057312 168.024277,354.894623 171.959274,345.382324 
	C172.541580,343.974701 172.826599,341.857239 172.186005,340.617523 
	C160.108032,317.242889 152.406021,292.776886 151.277710,266.228333 
	C150.040405,237.115005 147.627686,208.052429 146.312592,178.941299 
	C145.657043,164.429642 147.116043,149.911743 151.639084,135.992279 
	C153.465729,130.370865 156.653488,125.200356 159.052887,119.750282 
	C159.648422,118.397583 160.098694,116.624382 159.751099,115.265656 
	C152.737732,87.850342 145.563065,60.476254 138.581650,33.052937 
	C138.213730,31.607693 139.268311,29.800308 139.660675,28.161514 
	C141.106857,28.610764 142.763336,28.748493 143.965149,29.559752 
	C151.837006,34.873520 156.511154,42.050266 158.670441,51.559330 
	C162.095215,66.641449 166.624283,81.472687 170.675903,96.412849 
	C170.937271,97.376595 171.361038,98.383408 171.287155,99.337509 
	C170.528030,109.141556 176.197250,113.520035 184.059906,118.489029 
	C216.770370,139.161163 243.930679,166.112747 267.589294,196.616302 
	C273.497681,204.234116 278.960541,212.197479 284.539459,219.879822 
	C338.469391,195.598160 392.348175,194.248383 445.938416,219.795853 
	C455.896942,207.204956 465.433197,194.594666 475.552246,182.470825 
	C495.839783,158.164001 519.242432,137.203186 545.225220,119.119850 
	C545.771912,118.739372 546.284912,118.219200 546.895325,118.035263 
	C556.813782,115.046600 559.183899,107.240280 561.165405,98.106918 
	C565.043396,80.232185 570.255859,62.650871 574.602539,44.871498 
	C575.828796,39.855587 577.926331,36.012253 582.558533,33.540215 
	C584.437744,32.537373 585.896729,30.768335 587.735596,29.661333 
	C588.978149,28.913330 590.550354,28.712885 591.975098,28.267502 
	C592.328491,29.914930 593.294189,31.709873 592.938416,33.186459 
	C590.091736,45.002487 587.053345,56.773617 583.960876,68.528824 
	C579.851440,84.149567 575.604858,99.734314 571.540894,115.366707 
	C571.221436,116.595619 571.435364,118.373016 572.133850,119.394600 
	C580.905579,132.223175 584.352478,146.697464 584.905823,161.890045 
	C585.920349,189.744415 584.267517,217.516052 581.539673,245.236404 
	C580.023560,260.643402 579.473083,276.194672 577.034363,291.448608 
	C574.262146,308.788483 567.590027,325.024811 559.361755,340.578522 
	C558.617859,341.984741 558.545593,344.433289 559.265747,345.827271 
	C581.919617,389.679474 586.960693,436.041931 579.532288,484.304535 
	C575.835999,508.319489 567.664917,531.063721 560.202881,554.003174 
	C555.603943,568.141174 550.361572,582.069824 545.393311,596.134460 
	C546.453308,595.268555 548.100830,594.170044 549.451477,592.782471 
	C573.414246,568.163757 587.355164,538.162415 594.774109,505.159576 
	C607.105774,450.302551 603.983521,396.646973 579.893738,345.032562 
	C579.130127,343.396515 578.907043,340.777740 579.686646,339.262634 
	C589.854736,319.500916 597.096191,298.718781 598.559204,276.544373 
	C600.916321,240.817444 602.538818,205.032150 603.819641,169.248184 
	C604.478149,150.848953 600.355225,133.267883 591.755737,116.719131 
	C590.381958,114.075485 592.259766,109.742172 592.763000,104.970673 
	C597.856873,109.360992 601.898682,112.767136 605.856812,116.267822 
	C653.802734,158.672241 687.412292,210.461685 706.526855,271.485840 
	C725.110596,330.815094 726.341064,390.985382 711.453430,451.082886 
	C683.587158,563.571594 614.844360,642.303101 509.931763,689.828491 
	C462.258728,711.424377 411.848755,721.686035 359.453522,720.787720 
	C301.754333,719.798523 247.742371,704.483154 196.828415,677.574219 
	C157.346802,656.707336 122.657875,629.889404 93.495239,595.500305 
M456.877502,650.060303 
	C485.803772,628.896973 500.756592,600.588501 500.947113,564.299377 
	C503.888611,569.260803 506.836731,574.228333 508.710388,579.572632 
	C510.568756,584.873291 511.344910,590.553345 512.941467,597.591125 
	C514.369812,594.875671 515.234680,593.537292 515.813965,592.085022 
	C527.584229,562.576904 528.748535,532.298523 520.536499,501.943024 
	C512.991760,474.053986 496.298553,454.121002 467.025055,446.792694 
	C463.831299,445.993195 460.697205,444.648041 457.783722,443.091339 
	C447.230316,437.452728 441.104431,424.279846 444.207550,415.369537 
	C451.232513,414.768646 458.113220,414.779144 464.742767,413.493958 
	C480.794037,410.382385 491.030548,399.322205 499.687317,386.448944 
	C502.965698,381.573761 505.339783,375.626038 513.457397,376.981018 
	C513.309692,376.391418 513.161987,375.801849 513.014282,375.212250 
	C503.595245,373.441711 494.176208,371.671173 484.811523,369.910858 
	C478.496674,391.773651 467.891266,400.016724 447.719116,399.173645 
	C436.968811,398.724396 431.450317,402.912445 429.122009,413.612213 
	C427.059998,423.087952 427.962372,432.415924 430.614349,441.719452 
	C434.262207,454.516724 443.350922,463.301605 452.245026,472.350861 
	C456.544922,476.725739 461.118195,481.095856 464.313202,486.246307 
	C477.261230,507.118988 476.102936,528.183655 464.081268,549.135620 
	C463.226257,550.625793 462.531158,552.980957 463.097931,554.400391 
	C476.278290,587.408813 472.278168,618.922668 454.779297,649.746826 
	C454.721283,650.108887 454.663269,650.470886 454.605286,650.832947 
	C455.141449,650.629578 455.677582,650.426270 456.877502,650.060303 
M268.168823,645.358154 
	C270.546204,647.051697 272.923584,648.745178 275.300964,650.438721 
	C275.605347,650.057129 275.909760,649.675476 276.214172,649.293884 
	C275.203827,647.415771 274.118195,645.573914 273.194427,643.654114 
	C259.201782,614.574402 256.195221,584.867615 267.850983,554.210510 
	C268.506775,552.485657 267.929138,549.653931 266.874176,548.013611 
	C254.080978,528.122192 254.773178,493.804352 276.411407,474.699219 
	C280.025940,471.507812 283.810913,468.297638 286.606323,464.436676 
	C291.632202,457.495178 297.235046,450.548737 300.297241,442.706451 
	C304.975952,430.724274 306.086578,418.013153 299.033508,406.082550 
	C295.914062,400.805939 291.609802,397.995819 284.955170,398.991852 
	C274.083435,400.619110 264.107727,397.890015 256.867554,389.444458 
	C252.121918,383.908783 248.789047,377.162018 244.338608,370.199066 
	C236.972229,371.698273 228.199219,373.483795 219.426193,375.269287 
	C226.065475,376.426117 228.772476,381.568054 231.781845,386.397034 
	C244.725525,407.167145 262.722473,417.959167 288.073273,414.438141 
	C288.206787,415.784607 288.429871,416.902283 288.411041,418.015869 
	C288.172333,432.156433 279.859467,442.329285 263.665619,446.632019 
	C241.247513,452.588593 225.424164,466.654114 216.371063,487.137817 
	C200.699860,522.595703 201.719376,558.650879 216.618912,594.348022 
	C217.303162,595.987427 218.421692,597.445557 219.950027,600.018494 
	C219.613388,585.913757 223.849319,574.702698 231.290497,562.988647 
	C230.029785,597.231934 243.048737,623.699951 268.168823,645.358154 
M326.657135,630.898376 
	C358.461395,646.277344 388.892487,644.375549 417.181946,622.752563 
	C432.323792,611.178833 440.658997,595.190979 443.929169,576.219177 
	C416.104126,592.943481 389.855408,592.096802 365.402710,571.102295 
	C340.642914,591.634705 314.954529,592.945923 287.986420,575.917542 
	C289.932648,597.109131 304.716522,619.382019 326.657135,630.898376 
M453.204651,536.622803 
	C460.138092,519.115906 460.292542,502.097839 446.791565,487.700897 
	C438.237946,478.579559 428.060944,470.980591 420.514435,464.366302 
	C420.214691,467.920990 420.096924,475.049988 418.932465,482.003693 
	C415.971100,499.687622 406.450348,509.083679 390.348297,511.015900 
	C390.076447,511.048523 389.840057,511.376526 389.363770,511.734619 
	C389.620117,521.132141 383.664795,526.702393 376.373627,531.343811 
	C371.086060,534.709839 369.607178,542.490723 373.310303,547.838318 
	C385.322113,565.184204 409.123199,572.152100 428.356049,563.805115 
	C440.368896,558.591553 447.371460,548.601013 453.204651,536.622803 
M337.955444,564.607239 
	C346.454559,561.345215 353.371124,556.070007 358.169983,548.281616 
	C361.169525,543.413452 360.649902,534.652649 357.353607,532.969543 
	C348.475250,528.436218 342.193359,522.145508 342.484283,510.862793 
	C331.661072,511.570618 324.120911,506.693481 318.618591,498.011780 
	C312.100739,487.727692 310.139191,476.469177 310.920410,464.539642 
	C310.995209,463.397797 310.930420,462.246826 310.930420,461.094910 
	C303.337921,468.322327 296.087708,475.176086 288.890259,482.084778 
	C271.969879,498.326294 269.027557,521.638855 281.246429,542.368835 
	C293.420380,563.022583 314.889648,571.651245 337.955444,564.607239 
M555.418335,141.896973 
	C551.564087,143.837051 547.396423,145.331284 543.904480,147.786621 
	C511.121033,170.837860 485.938049,199.978500 471.994476,238.608200 
	C493.082916,251.468231 510.948242,267.876068 524.916016,288.516083 
	C524.948181,286.535553 524.611023,284.763214 524.344116,282.980377 
	C522.327576,269.512878 519.316895,256.102539 518.522156,242.562454 
	C516.726807,211.976456 530.110535,188.167892 554.406372,168.571365 
	C557.857361,176.806839 561.039368,184.400360 564.221375,191.993881 
	C565.144043,181.505722 565.604187,171.106796 564.985779,160.772400 
	C564.558167,153.625992 562.391174,146.688080 555.418335,141.896973 
M198.716797,190.841034 
	C206.038239,201.623169 210.705353,213.417068 212.292587,226.390900 
	C214.861252,247.386932 210.720840,267.638367 205.884201,288.209229 
	C220.839188,268.571899 237.734619,251.101486 259.947693,239.236526 
	C258.659698,235.736450 257.596313,232.415070 256.236908,229.219620 
	C242.974915,198.045166 221.231934,173.682800 194.678253,153.325653 
	C189.857422,149.629791 184.238831,146.938004 178.859360,144.020889 
	C175.573318,142.238968 173.447296,143.743393 171.731979,146.917297 
	C165.827805,157.841965 163.816727,180.472565 167.631439,191.885849 
	C170.567108,184.795700 173.747284,177.115067 176.927460,169.434433 
	C177.580139,169.305969 178.232819,169.177521 178.885498,169.049057 
	C185.349487,176.121994 191.813461,183.194916 198.716797,190.841034 
M471.053253,331.236023 
	C467.225494,331.164337 463.391846,330.918884 459.570984,331.049255 
	C435.899811,331.856842 417.258759,345.328308 408.988861,367.473206 
	C404.589233,379.254364 405.897339,391.443817 406.517395,403.549133 
	C406.814331,409.346039 407.732330,415.111115 408.369049,420.890625 
	C409.710632,420.023560 410.132050,419.173767 410.245300,418.284698 
	C411.580292,407.805328 415.411316,398.411194 421.950745,390.056458 
	C422.916534,388.822540 423.021027,386.685608 423.026489,384.964874 
	C423.072754,370.417969 431.151367,358.141815 445.100555,353.849823 
	C451.949890,351.742340 459.479736,351.073090 466.697693,351.094238 
	C482.995117,351.141907 499.290070,352.023773 515.828491,352.574371 
	C502.899628,340.405182 487.680603,332.782745 471.053253,331.236023 
M319.175201,359.392670 
	C311.529602,345.474396 299.819916,336.749481 284.552032,332.923950 
	C258.079224,326.290833 235.694092,335.193726 214.355713,352.104401 
	C216.295700,352.104401 217.204056,352.120911 218.111664,352.101990 
	C236.078201,351.727386 254.045578,351.077057 272.010590,351.137543 
	C277.354767,351.155518 282.931366,352.521606 287.984314,354.395142 
	C299.455627,358.648499 310.627411,371.548828 309.020752,385.762421 
	C308.898468,386.844360 308.958496,388.235291 309.535217,389.063995 
	C316.498322,399.069672 320.430115,410.186646 322.301422,422.340942 
	C323.804962,411.889221 324.639191,401.496338 325.177856,391.088165 
	C325.734619,380.330261 324.596985,369.815247 319.175201,359.392670 
M349.801025,465.136353 
	C338.205933,467.851349 329.176758,474.011993 323.413025,484.658539 
	C351.569885,478.229492 379.625610,477.611359 407.736267,484.620850 
	C401.830048,473.513733 392.489960,467.352295 380.375427,464.861908 
	C370.420197,462.815369 360.533997,462.977051 349.801025,465.136353 
M303.520599,323.000977 
	C304.538757,323.657745 305.556885,324.314514 307.288452,325.431488 
	C303.151520,311.140472 306.627319,298.531586 312.531891,285.781097 
	C300.719482,289.964020 289.863007,304.808838 289.382782,316.087524 
	C293.996796,318.298187 298.454681,320.434082 303.520599,323.000977 
M424.888641,323.355408 
	C425.315552,323.617279 425.900146,324.209839 426.146179,324.092468 
	C431.632294,321.476410 437.081055,318.782074 442.634644,316.054596 
	C440.309814,301.878845 428.625092,287.178375 419.007599,286.570709 
	C425.765930,297.734344 427.851013,309.695465 424.888641,323.355408 
M272.336548,382.214813 
	C274.639526,383.283813 276.942505,384.352814 279.245483,385.421814 
	C273.820312,380.117371 271.990753,374.186951 273.953583,367.118713 
	C270.882507,367.118713 268.209290,367.118713 265.330261,367.118713 
	C265.339203,373.284760 266.898621,378.259979 272.336548,382.214813 
M466.045715,374.311371 
	C466.407654,371.917175 466.769562,369.523010 467.145050,367.039124 
	C463.680481,367.039124 460.825043,367.039124 457.043671,367.039124 
	C460.835480,373.886902 459.385620,379.422821 453.918457,384.179169 
	C460.017151,383.310425 463.840118,380.311584 466.045715,374.311371 
M424.488983,325.527588 
	C424.488983,325.527588 424.511200,325.477417 424.488983,325.527588 
z"/>
<path fill="#000000" opacity="1.000000" stroke="none" 
	d="
M521.203857,114.199539 
	C489.296844,136.845718 463.613281,165.052475 440.907654,196.719955 
	C390.974731,178.228958 340.836487,178.380661 291.742340,196.842361 
	C280.439636,183.331039 269.866913,169.835434 258.386353,157.162231 
	C239.510590,136.325592 218.283325,118.136826 194.005783,103.747124 
	C191.007492,101.969994 189.653854,99.927155 189.170013,96.406960 
	C188.197510,89.331535 186.742294,82.294365 184.992691,75.366058 
	C184.154922,72.048531 184.682632,70.455017 187.770691,68.711670 
	C212.805878,54.578171 239.183304,43.728729 266.718079,35.553699 
	C312.008270,22.107126 358.181030,17.332560 405.074738,22.998037 
	C455.265198,29.061815 502.454346,44.632664 545.887024,70.900177 
	C546.295898,71.147476 546.669006,71.453880 546.522949,71.349419 
	C545.249817,80.603004 544.179810,89.489250 542.674377,98.301109 
	C542.402893,99.890121 540.569824,101.507957 539.064697,102.538170 
	C533.297058,106.485832 527.369263,110.199402 521.203857,114.199539 
z"/>
<path fill="#000000" opacity="1.000000" stroke="none" 
	d="
M272.027740,382.021240 
	C266.898621,378.259979 265.339203,373.284760 265.330261,367.118713 
	C268.209290,367.118713 270.882507,367.118713 273.953583,367.118713 
	C271.990753,374.186951 273.820312,380.117371 279.245483,385.421814 
	C276.942505,384.352814 274.639526,383.283813 272.027740,382.021240 
z"/>
<path fill="#000000" opacity="1.000000" stroke="none" 
	d="
M465.944580,374.691040 
	C463.840118,380.311584 460.017151,383.310425 453.918457,384.179169 
	C459.385620,379.422821 460.835480,373.886902 457.043671,367.039124 
	C460.825043,367.039124 463.680481,367.039124 467.145050,367.039124 
	C466.769562,369.523010 466.407654,371.917175 465.944580,374.691040 
z"/>
<path fill="#000000" opacity="1.000000" stroke="none" 
	d="
M455.971191,650.004517 
	C455.677582,650.426270 455.141449,650.629578 454.605286,650.832947 
	C454.663269,650.470886 454.721283,650.108887 454.996765,649.565552 
	C455.385742,649.518250 455.557190,649.652222 455.971191,650.004517 
z"/>
<path fill="#000000" opacity="1.000000" stroke="none" 
	d="
M424.500092,325.502502 
	C424.511200,325.477417 424.488983,325.527588 424.500092,325.502502 
z"/>
<path fill="#000000" opacity="1.000000" stroke="none" 
	d="
M399.209106,546.757019 
	C397.064789,543.930420 396.951630,541.140686 399.808594,539.812195 
	C401.364227,539.088806 404.639984,539.699524 405.688629,540.937683 
	C406.672668,542.099548 406.515015,545.636841 405.438843,546.729980 
	C404.409454,547.775513 401.550873,547.020142 399.209106,546.757019 
z"/>
<path fill="#000000" opacity="1.000000" stroke="none" 
	d="
M430.559204,506.247681 
	C432.548401,509.079529 432.054657,511.630554 429.443726,512.715332 
	C427.877319,513.366028 425.207428,512.784485 423.753571,511.747375 
	C422.883179,511.126495 422.717682,508.148926 423.435516,506.948029 
	C425.050842,504.245819 427.698364,504.263611 430.559204,506.247681 
z"/>
<path fill="#000000" opacity="1.000000" stroke="none" 
	d="
M431.968994,540.963867 
	C435.130249,544.814514 434.883453,548.086914 431.470123,548.821289 
	C429.978394,549.142273 427.771149,548.534363 426.671082,547.509094 
	C425.814850,546.711060 425.475220,543.838013 426.128815,543.252686 
	C427.552795,541.977539 429.756897,541.573486 431.968994,540.963867 
z"/>
<path fill="#000000" opacity="1.000000" stroke="none" 
	d="
M439.685791,523.022339 
	C442.814545,524.112854 444.266876,526.138489 442.857880,528.830322 
	C442.183350,530.119080 439.782349,531.646057 438.696747,531.315125 
	C436.989410,530.794678 435.732880,528.795471 434.285492,527.422363 
	C435.962189,525.942627 437.638916,524.462891 439.685791,523.022339 
z"/>
<path fill="#000000" opacity="1.000000" stroke="none" 
	d="
M418.528625,530.346375 
	C415.699707,532.377991 413.232574,531.918030 412.046265,529.267639 
	C411.413208,527.853394 411.767578,525.068237 412.799957,524.100403 
	C413.818512,523.145569 416.630981,523.008240 417.987762,523.744507 
	C420.603333,525.163818 420.628143,527.689697 418.528625,530.346375 
z"/>
<path fill="#000000" opacity="1.000000" stroke="none" 
	d="
M294.131104,531.356201 
	C291.676758,530.779846 289.337524,530.331299 287.554230,529.086365 
	C286.973267,528.680847 287.301147,525.568848 288.177582,524.813599 
	C289.450317,523.716919 291.732208,522.945435 293.344727,523.260193 
	C297.012085,523.975830 297.396088,527.552917 294.131104,531.356201 
z"/>
<path fill="#000000" opacity="1.000000" stroke="none" 
	d="
M329.868713,539.029907 
	C331.677429,540.677124 333.608185,542.110840 334.299835,543.998657 
	C334.589661,544.789612 332.457550,547.250977 331.051727,547.657898 
	C329.672089,548.057251 327.403076,547.260559 326.254028,546.198914 
	C323.666473,543.808228 325.051025,540.972778 329.868713,539.029907 
z"/>
<path fill="#000000" opacity="1.000000" stroke="none" 
	d="
M304.761841,513.637939 
	C300.955505,513.583740 299.004761,511.678864 299.627075,508.341034 
	C299.885284,506.956207 301.855652,504.978241 303.118408,504.924042 
	C304.695984,504.856262 307.753876,506.600616 307.695068,507.374420 
	C307.535828,509.470856 306.066925,511.467804 304.761841,513.637939 
z"/>
<path fill="#000000" opacity="1.000000" stroke="none" 
	d="
M304.776611,546.619446 
	C303.055023,547.646301 301.106323,549.216492 300.007721,548.756470 
	C298.398499,548.082581 296.320923,545.867310 296.434082,544.470154 
	C296.552917,543.002991 299.005768,540.612366 300.462036,540.595093 
	C303.594177,540.557983 305.531128,542.704224 304.776611,546.619446 
z"/>
<path fill="#000000" opacity="1.000000" stroke="none" 
	d="
M312.895508,523.672363 
	C315.299469,523.837463 317.589264,523.855835 319.339142,524.837097 
	C320.018372,525.218018 320.118622,528.409790 319.343414,529.191711 
	C318.163147,530.382263 315.911804,531.268616 314.257751,531.073914 
	C310.830231,530.670410 310.282593,527.787292 312.895508,523.672363 
z"/>
</svg>